<!-- Generator: Adobe Illustrator 26.3.1, SVG Export Plug-In . SVG Version: 6.00 Build 0)  -->
<svg enable-background="new 0 0 430 430" version="1.1" viewBox="0 0 430 430" xml:space="preserve"
     xmlns="http://www.w3.org/2000/svg">
<style type="text/css">
	.arrow-head{opacity:0.5;fill:#ebe6ef;}
	.Styl_x0020_grafiki_x0020_693{opacity:0.5;fill:#3a3347;}
	.Styl_x0020_grafiki_x0020_694{fill:#3a3347;}
	.Styl_x0020_grafiki_x0020_695{opacity:0.5;fill:#f24c00;}
	.arrow-parts{fill:#f24c00;}
	.st0{fill:#646E78;}
	.st1{fill:none;stroke:#646E78;stroke-width:7;stroke-linecap:round;stroke-linejoin:round;stroke-miterlimit:10;}
	.st2{fill:#ebe6ef;}
	.st3{fill:#121331;}
	.st4{fill:#3a3347;}
	.st5{fill:#92140C;}
	.st6{fill:#f24c00;}
	.st7{opacity:0.5;fill:#f24c00;}
	.st8{opacity:0.5;fill:#ebe6ef;}
	.st9{fill:#FFC738;}
	.st10{opacity:0.5;fill:#FFC738;}
	.st11{fill:#121331;stroke:#ebe6ef;stroke-width:7;stroke-linecap:round;stroke-linejoin:round;stroke-miterlimit:10;}
	.st12{fill:#4BB3FD;}
	.st13{opacity:0.5;fill:#4BB3FD;}
	.st14{fill:none;stroke:#121331;stroke-width:7;stroke-linecap:round;stroke-linejoin:round;stroke-miterlimit:10;}
	.st15{opacity:0.5;}
	.st16{fill:#121331;stroke:#4BB3FD;stroke-width:30;stroke-linecap:round;stroke-linejoin:round;stroke-miterlimit:10;}
	.st17{fill:none;stroke:#121331;stroke-width:12;stroke-linecap:round;stroke-linejoin:round;}
	.st18{fill:#2CA58D;}
	.st19{fill:none;stroke:#08A88A;stroke-width:12;stroke-linecap:round;stroke-linejoin:round;stroke-miterlimit:10;}
	.st20{opacity:0.5;fill:#2CA58D;}
	.st21{opacity:0.5;fill:#646E78;}
	.st22{fill:none;stroke:#FFC738;stroke-width:7;stroke-linecap:round;stroke-linejoin:round;stroke-miterlimit:10;}
	.st23{fill:#3a3347;stroke:#121331;stroke-width:7;stroke-linecap:round;stroke-linejoin:round;stroke-miterlimit:10;}
	.st24{opacity:0.5;fill:#3a3347;}
	.st25{fill:url(#SVGID_1_);}
	.st26{fill:url(#SVGID_00000098208791190188000590000008336986264927887761_);}
	.st27{fill:url(#SVGID_00000170257276387521224580000013277145115361164955_);}
	.st28{fill:#B26836;}
	.st29{opacity:0.5;fill:#92140C;}
	.st30{fill:#F28BA8;}
	.st31{fill:none;stroke:#ebe6ef;stroke-width:7;stroke-linecap:round;stroke-linejoin:round;stroke-miterlimit:10;}
	.st32{opacity:0.5;fill:#B26836;}
	.st33{fill:#08A789;}
	.st34{fill:#FFFFFF;}
	.st35{fill:none;stroke:#B26836;stroke-width:7;stroke-linecap:round;stroke-linejoin:round;stroke-miterlimit:10;}
	.st36{opacity:0.99;fill:#ebe6ef;}
	.st37{fill:#F9C9C0;}
	.st38{opacity:0.5;fill:#F9C9C0;}
	.st39{opacity:0.5;fill:#F28BA8;}
	.st40{fill:none;stroke:#08A284;stroke-width:12;stroke-linecap:round;stroke-linejoin:round;stroke-miterlimit:10;}
	.st41{fill:none;stroke:#92140C;stroke-width:7;stroke-linecap:round;stroke-linejoin:round;stroke-miterlimit:10;}
	.st42{fill:none;stroke:#08A688;stroke-width:12;stroke-linecap:round;stroke-linejoin:round;stroke-miterlimit:10;}
	.st43{opacity:0.96;fill:#ebe6ef;}
	.st44{fill:none;stroke:#121331;stroke-width:12;stroke-linecap:round;stroke-linejoin:round;stroke-miterlimit:10;}
	.st45{fill:#08A88A;}
	.st46{fill:none;stroke:#2CA58D;stroke-width:7;stroke-linecap:round;stroke-linejoin:round;stroke-miterlimit:10;}
	.st47{fill:#121331;stroke:#FFC738;stroke-width:7;stroke-linecap:round;stroke-linejoin:round;stroke-miterlimit:10;}
	.st48{fill:#121331;stroke:#92140C;stroke-width:7;stroke-linejoin:round;stroke-miterlimit:10;}
	.st49{fill:none;stroke:#92140C;stroke-width:7;stroke-linejoin:round;stroke-miterlimit:10;}
	.st50{opacity:0.75;fill:#ebe6ef;}
	.st51{fill:#121331;stroke:#646E78;stroke-width:12;stroke-linecap:round;stroke-linejoin:round;stroke-miterlimit:10;}
	.st52{fill:#E94E12;}
	.st53{fill:#E84F16;}
	.st54{opacity:0.5;fill:#FFFFFF;}
</style>


    <g transform="rotate(-90 219.02 216.75)">
		<polygon class="arrow-parts"
                 points="71.86 187.91 31.99 187.91 31.99 213.25 31.99 238.59 71.86 238.59 86.69 213.25"/>
        <!--        Left String-->
        <path class="arrow-left-string"
              d="m112.83 216.75c-0.62 0-1.25-0.17-1.82-0.52-1.65-1.01-2.17-3.16-1.16-4.81l114.35-186.8c1.01-1.65 3.16-2.17 4.81-1.16s2.17 3.16 1.16 4.81l-114.35 186.81c-0.66 1.08-1.81 1.67-2.99 1.67z"/>
        <!--Right String-->
        <path class="arrow-right-string"
              d="m227.19 403.56c-1.18 0-2.33-0.6-2.99-1.67l-114.35-186.81c-1.01-1.65-0.49-3.8 1.16-4.81s3.8-0.49 4.81 1.16l114.35 186.81c1.01 1.65 0.49 3.8-1.16 4.81-0.56 0.34-1.19 0.51-1.82 0.51z"/>


        <!--		Arrow-->
        <path class="arrow"
              d="m351.65 216.75h-319.66c-1.93 0-3.5-1.57-3.5-3.5s1.57-3.5 3.5-3.5h319.66c1.93 0 3.5 1.57 3.5 3.5s-1.57 3.5-3.5 3.5z"/>
        <!--Bow-->
        <path class="Styl_x0020_grafiki_x0020_694"
              d="m306.27 128.07c-5.7-27.74-23.26-52.42-48.19-67.71l-15.79-9.69c-7.15-4.39-11.6-12.33-11.6-20.72 0-1.93-1.57-3.5-3.5-3.5s-3.5 1.57-3.5 3.5c0 6.17 1.87 12.14 5.18 17.19 0.04 0.07 0.06 0.14 0.1 0.21 22.07 36.05 33.26 63.76 33.26 82.35v174.11c0 18.6-11.19 46.31-33.26 82.36-0.04 0.07-0.06 0.14-0.1 0.2-3.31 5.05-5.18 11.02-5.18 17.19 0 1.93 1.57 3.5 3.5 3.5s3.5-1.57 3.5-3.5c0-8.39 4.44-16.33 11.6-20.72l15.79-9.69c24.93-15.29 42.49-39.97 48.19-67.71 1.5-7.3 2.26-14.78 2.26-22.23v-132.91c0-7.45-0.76-14.93-2.26-22.23z"/>

        <path class="Styl_x0020_grafiki_x0020_693"
              d="m242.29 382.83 3.64-2.23c19.84-33.34 29.9-59.16 29.9-76.79v-174.12c0-17.63-10.06-43.45-29.9-76.79l-3.64-2.23c-7.15-4.39-11.6-12.33-11.6-20.72 0-1.93-1.57-3.5-3.5-3.5s-3.5 1.57-3.5 3.5c0 6.17 1.87 12.14 5.18 17.19 0.04 0.07 0.06 0.14 0.1 0.21 22.07 36.05 33.26 63.76 33.26 82.35v174.11c0 18.6-11.19 46.31-33.26 82.36-0.04 0.07-0.06 0.14-0.1 0.2-3.31 5.05-5.18 11.02-5.18 17.19 0 1.93 1.57 3.5 3.5 3.5s3.5-1.57 3.5-3.5c0-8.4 4.44-16.34 11.6-20.73z"/>
        <polygon class="arrow-head" points="351.65 236.81 351.65 189.69 406.06 213.25"/>
        <path class="arrow-head"
              d="m361.81 229.55v-32.59c0-0.96 0.28-1.82 0.74-2.54l-10.9-4.72v47.12l10.9-4.72c-0.46-0.74-0.74-1.6-0.74-2.55z"/>

        <!--		Arrow Feather-->
        <path class="arrow"
              d="m71.86 242.09h-39.87c-1.93 0-3.5-1.57-3.5-3.5v-50.69c0-1.93 1.57-3.5 3.5-3.5h39.86c1.24 0 2.39 0.66 3.02 1.73l14.83 25.34c0.64 1.09 0.64 2.44 0 3.54l-14.83 25.34c-0.62 1.08-1.77 1.74-3.01 1.74zm-36.37-7h34.36l12.78-21.84-12.78-21.84h-34.36z"/>

        <path class="st3"
              d="m227.19 410.56c-3.86 0-7-3.14-7-7 0-6.68 1.94-13.21 5.62-18.9 0.05-0.1 0.1-0.2 0.16-0.3 21.74-35.51 32.76-62.6 32.76-80.55v-174.12c0-17.94-11.02-45.04-32.74-80.53-0.07-0.11-0.13-0.22-0.18-0.33-3.67-5.68-5.61-12.21-5.61-18.89 0-3.86 3.14-7 7-7s7 3.14 7 7c0 7.18 3.8 13.98 9.93 17.74l15.79 9.69c25.75 15.79 43.89 41.31 49.78 69.99 1.55 7.53 2.33 15.25 2.33 22.94v132.9c0 7.69-0.78 15.41-2.33 22.94-5.89 28.69-24.04 54.2-49.78 69.99l-15.79 9.69c-6.12 3.76-9.93 10.55-9.93 17.74-0.01 3.86-3.15 7-7.01 7zm0-7.05v0.01-0.01zm0-0.03v0.02-0.02zm0-0.03v0.02-0.02zm0-0.03v0.02-0.02zm1.15-7.71c-0.74 2.5-1.13 5.08-1.15 7.7 0.01-2.63 0.41-5.22 1.15-7.7zm3.71-7.87-0.12 0.24c2.2-3.29 5.09-6.12 8.53-8.23l15.79-9.69c24.11-14.79 41.09-38.64 46.59-65.44 1.45-7.07 2.19-14.31 2.19-21.53v-132.89c0-7.22-0.74-14.46-2.19-21.53-5.5-26.8-22.48-50.65-46.59-65.43l-15.79-9.69c-3.44-2.11-6.33-4.94-8.53-8.22l0.06 0.12c0.01 0.03 0.03 0.07 0.05 0.11 22.35 36.54 33.68 64.81 33.68 84.03v174.11c0.01 19.23-11.32 47.51-33.67 84.04zm-0.1-342.34c0.01 0.01 0.01 0.01 0.01 0.02 0 0-0.01-0.01-0.01-0.02zm-4.76-15.39c0.01 2.51 0.38 5 1.07 7.4-0.69-2.38-1.05-4.87-1.07-7.4zm0-0.02v0.03-0.03zm0-0.03v0.02-0.02zm0-0.03v0.02-0.02zm0-0.03v0.01-0.01zm0-0.03v0.01-0.01z"/>
        <!--		Arrow Head-->
        <path class="arrow"
              d="m351.65 240.31c-0.67 0-1.34-0.19-1.92-0.57-0.99-0.65-1.58-1.75-1.58-2.93v-47.12c0-1.18 0.59-2.28 1.58-2.93s2.23-0.76 3.31-0.29l54.41 23.56c1.28 0.55 2.11 1.82 2.11 3.21s-0.83 2.66-2.11 3.21l-54.41 23.56c-0.44 0.2-0.92 0.3-1.39 0.3zm3.5-45.29v36.46l42.1-18.23z"/></g>
</svg>
